<?xml version="1.0" standalone="no"?>
<!DOCTYPE svg PUBLIC "-//W3C//DTD SVG 20010904//EN"
 "http://www.w3.org/TR/2001/REC-SVG-20010904/DTD/svg10.dtd">
<svg version="1.0" xmlns="http://www.w3.org/2000/svg"
 width="48.000000pt" height="48.000000pt" viewBox="0 0 48.000000 48.000000"
 preserveAspectRatio="xMidYMid meet">
<metadata>
Created by potrace 1.16, written by Peter Selinger 2001-2019
</metadata>
<g transform="translate(0.000000,48.000000) scale(0.100000,-0.100000)"
fill="#000000" stroke="none">
<path d="M0 240 l0 -240 240 0 240 0 0 240 0 240 -240 0 -240 0 0 -240z m255
58 c33 -39 32 -80 -2 -117 -61 -65 -163 -29 -163 58 0 44 26 79 65 89 43 12
72 3 100 -30z m130 -58 c0 -21 -5 -26 -32 -28 -31 -3 -33 -1 -33 28 0 29 2 31
33 28 27 -2 32 -7 32 -28z"/>
</g>
</svg>
